{"title":"Kingsman.The.Secret.Service.2014.720p.BluRay.H264.AAC-RARBG","uid":11950557,"size":1681170097,"categoryP":"video","categoryS":"hd___movies","magnet":"?xt=urn:btih:69d0af4446a2c07dd73a66a4ffa8f3389127a9d2&amp;dn=Kingsman.The.Secret.Service.2014.720p.BluRay.H264.AAC-RARBG&amp;tr=udp%3A%2F%2Ftracker.openbittorrent.com%3A80&amp;tr=udp%3A%2F%2Fopen.demonii.com%3A1337&amp;tr=udp%3A%2F%2Ftracker.coppersurfer.tk%3A6969&amp;tr=udp%3A%2F%2Fexodus.desync.com%3A6969","seeders":0,"leechers":1,"uploader":"vickey1992","files":7,"time":1432150053,"description":"Video\nID                                       : 1\nFormat                                   : AVC\nFormat/Info                              : Advanced Video Codec\nFormat profile                           : &lt;a class=&quot;__cf_email__&quot; href=&quot;/cdn-cgi/l/email-protection&quot; data-cfemail=&quot;7a32131d123a364e544b&quot;&gt;[email&amp;#160;protected]&lt;/a&gt;&lt;script data-cfhash='f9e31' type=&quot;text/javascript&quot;&gt;\n/* &lt;![CDATA[ */!function(){try{var t=&quot;currentScript&quot;in document?document.currentScript:function(){for(var t=document.getElementsByTagName(&quot;script&quot;),e=t.length;e--;)if(t[e].getAttribute(&quot;data-cfhash&quot;))return t[e]}();if(t&amp;&amp;t.previousSibling){var e,r,n,i,c=t.previousSibling,a=c.getAttribute(&quot;data-cfemail&quot;);if(a){for(e=&quot;&quot;,r=parseInt(a.substr(0,2),16),n=2;a.length-n;n+=2)i=parseInt(a.substr(n,2),16)^r,e+=String.fromCharCode(i);e=document.createTextNode(e),c.parentNode.replaceChild(e,c)}t.parentNode.removeChild(t);}}catch(u){}}()/* ]]&gt; */&lt;/script&gt;\nFormat settings, CABAC                   : Yes\nFormat settings, ReFrames                : 4 frames\nCodec ID                                 : avc1\nCodec ID/Info                            : Advanced Video Coding\nDuration                                 : 2h 8mn\nBit rate                                 : 1 500 Kbps\nWidth                                    : 1 280 pixels\nHeight                                   : 536 pixels\nDisplay aspect ratio                     : 2.40:1\nFrame rate mode                          : Constant\nFrame rate                               : 23.976 fps\nColor space                              : YUV\nChroma subsampling                       : 4:2:0\nBit depth                                : 8 bits\nScan type                                : Progressive\nBits/(Pixel*Frame)                       : 0.091\nStream size                              : 1.35 GiB (87%)\nWriting library                          : x264 core 144 r2525M 40bb568\nEncoding settings                        : cabac=1 / ref=4 / deblock=1:-1:-1 / analyse=0x3:0x113 / me=umh / subme=9 / psy=1 / psy_rd=1.00:0.15 / mixed_ref=1 / me_range=24 / chroma_me=1 / trellis=2 / 8x8dct=1 / cqm=0 / deadzone=21,11 / fast_pskip=1 / chroma_qp_offset=-3 / threads=32 / lookahead_threads=4 / sliced_threads=0 / nr=0 / decimate=1 / interlaced=0 / bluray_compat=0 / constrained_intra=0 / bframes=3 / b_pyramid=2 / b_adapt=1 / b_bias=0 / direct=1 / weightb=1 / open_gop=0 / weightp=2 / keyint=250 / keyint_min=25 / scenecut=40 / intra_refresh=0 / rc_lookahead=50 / rc=2pass / mbtree=1 / bitrate=1500 / ratetol=1.0 / qcomp=0.60 / qpmin=0 / qpmax=69 / qpstep=4 / cplxblur=20.0 / qblur=0.5 / vbv_maxrate=31250 / vbv_bufsize=31250 / nal_hrd=none / filler=0 / ip_ratio=1.40 / aq=3:1.00\nEncoded date                             : UTC 1904-01-01 00:00:00\nTagged date                              : UTC 1904-01-01 00:00:00\n\nAudio\nID                                       : 2\nFormat                                   : AAC\nFormat/Info                              : Advanced Audio Codec\nFormat profile                           : LC\nCodec ID                                 : 40\nDuration                                 : 2h 8mn\nBit rate mode                            : Constant\nBit rate                                 : 224 Kbps\nChannel(s)                               : 2 channels\nChannel(s)_Original                      : 6 channels\nChannel positions                        : Front: L C R, Side: L R, LFE\nSampling rate                            : 48.0 KHz\nCompression mode                         : Lossy\nStream size                              : 206 MiB (13%)\nLanguage                                 : English\nEncoded date                             : UTC 1904-01-01 00:00:00\nTagged date                              : UTC 1904-01-01 00:00:00\n\nMenu #1\nID                                       : 3\nCodec ID                                 : text\nDuration                                 : 2h 8mn\nLanguage                                 : English\nEncoded date                             : UTC 1904-01-01 00:00:00\nTagged date                              : UTC 1904-01-01 00:00:00\nBit rate mode                            : CBR\n00:00:00.000                             : 00:00:00.000\n00:02:55.510                             : 00:02:55.467\n00:04:50.708                             : 00:04:50.665\n00:08:34.223                             : 00:08:34.180\n00:11:49.919                             : 00:11:49.876\n00:13:04.618                             : 00:13:04.575\n00:15:58.042                             : 00:15:57.999\n00:18:26.023                             : 00:18:25.980\n00:23:48.095                             : 00:23:48.052\n00:25:37.370                             : 00:25:37.327\n00:29:53.793                             : 00:29:53.750\n00:32:22.358                             : 00:32:22.315\n00:33:44.983                             : 00:33:44.940\n00:36:58.551                             : 00:36:58.508\n00:38:46.701                             : 00:38:46.658\n00:42:43.103                             : 00:42:43.060\n00:45:00.949                             : 00:45:00.906\n00:47:39.358                             : 00:47:39.315\n00:53:44.639                             : 00:53:44.596\n00:57:25.276                             : 00:57:25.233\n01:03:26.596                             : 01:03:26.553\n01:05:18.958                             : 01:05:18.915\n01:10:25.014                             : 01:10:24.971\n01:13:07.301                             : 01:13:07.258\n01:14:59.037                             : 01:14:58.994\n01:16:55.279                             : 01:16:55.236\n01:23:00.894                             : 01:23:00.851\n01:25:54.484                             : 01:25:54.441\n01:31:18.391                             : 01:31:18.348\n01:34:35.880                             : 01:34:35.837\n01:36:25.030                             : 01:36:24.987\n01:39:57.076                             : 01:39:57.033\n01:44:04.948                             : 01:44:04.905\n01:50:28.164                             : 01:50:28.121\n01:58:14.755                             : 01:58:14.712\n01:59:31.999                             : 01:59:31.956\n\nMenu #2\n00:00:00.043                             : 00:00:00.000\n00:02:55.510                             : 00:02:55.467\n00:04:50.708                             : 00:04:50.665\n00:08:34.223                             : 00:08:34.180\n00:11:49.919                             : 00:11:49.876\n00:13:04.618                             : 00:13:04.575\n00:15:58.042                             : 00:15:57.999\n00:18:26.023                             : 00:18:25.980\n00:23:48.095                             : 00:23:48.052\n00:25:37.370                             : 00:25:37.327\n00:29:53.793                             : 00:29:53.750\n00:32:22.358                             : 00:32:22.315\n00:33:44.983                             : 00:33:44.940\n00:36:58.551                             : 00:36:58.508\n00:38:46.701                             : 00:38:46.658\n00:42:43.103                             : 00:42:43.060\n00:45:00.949                             : 00:45:00.906\n00:47:39.358                             : 00:47:39.315\n00:53:44.639                             : 00:53:44.596\n00:57:25.276                             : 00:57:25.233\n01:03:26.596                             : 01:03:26.553\n01:05:18.958                             : 01:05:18.915\n01:10:25.014                             : 01:10:24.971\n01:13:07.301                             : 01:13:07.258\n01:14:59.037                             : 01:14:58.994\n01:16:55.279                             : 01:16:55.236\n01:23:00.894                             : 01:23:00.851\n01:25:54.484                             : 01:25:54.441\n01:31:18.391                             : 01:31:18.348\n01:34:35.880                             : 01:34:35.837\n01:36:25.030                             : 01:36:24.987\n01:39:57.076                             : 01:39:57.033\n01:44:04.948                             : 01:44:04.905\n01:50:28.164                             : 01:50:28.121\n01:58:14.755                             : 01:58:14.712\n01:59:31.999                             : 01:59:31.956","torrent":{"xt":"urn:btih:69d0af4446a2c07dd73a66a4ffa8f3389127a9d2","amp;dn":"Kingsman.The.Secret.Service.2014.720p.BluRay.H264.AAC-RARBG","amp;tr":["udp%3A%2F%2Ftracker.openbittorrent.com%3A80","udp%3A%2F%2Fopen.demonii.com%3A1337","udp%3A%2F%2Ftracker.coppersurfer.tk%3A6969","udp%3A%2F%2Fexodus.desync.com%3A6969"],"infoHash":"69d0af4446a2c07dd73a66a4ffa8f3389127a9d2","infoHashBuffer":{"type":"Buffer","data":[105,208,175,68,70,162,192,125,215,58,102,164,255,168,243,56,145,39,169,210]},"announce":[],"urlList":[]}}